<svg width="86" height="86" viewBox="0 0 86 86" fill="none" xmlns="http://www.w3.org/2000/svg">
<path d="M7.16663 7.16663H14.3333V71.6666H78.8333V78.8333H7.16663V7.16663ZM32.25 35.8333C35.101 35.8333 37.8353 36.9659 39.8514 38.9819C41.8674 40.9979 43 43.7322 43 46.5833C43 49.4344 41.8674 52.1687 39.8514 54.1847C37.8353 56.2007 35.101 57.3333 32.25 57.3333C29.3989 57.3333 26.6646 56.2007 24.6486 54.1847C22.6325 52.1687 21.5 49.4344 21.5 46.5833C21.5 43.7322 22.6325 40.9979 24.6486 38.9819C26.6646 36.9659 29.3989 35.8333 32.25 35.8333ZM46.5833 7.16663C49.4344 7.16663 52.1687 8.29921 54.1847 10.3152C56.2007 12.3312 57.3333 15.0655 57.3333 17.9166C57.3333 20.7677 56.2007 23.502 54.1847 25.518C52.1687 27.534 49.4344 28.6666 46.5833 28.6666C43.7322 28.6666 40.9979 27.534 38.9819 25.518C36.9659 23.502 35.8333 20.7677 35.8333 17.9166C35.8333 15.0655 36.9659 12.3312 38.9819 10.3152C40.9979 8.29921 43.7322 7.16663 46.5833 7.16663ZM64.5 43C67.351 43 70.0853 44.1325 72.1014 46.1486C74.1174 48.1646 75.25 50.8989 75.25 53.75C75.25 56.601 74.1174 59.3353 72.1014 61.3514C70.0853 63.3674 67.351 64.5 64.5 64.5C61.6489 64.5 58.9146 63.3674 56.8986 61.3514C54.8825 59.3353 53.75 56.601 53.75 53.75C53.75 50.8989 54.8825 48.1646 56.8986 46.1486C58.9146 44.1325 61.6489 43 64.5 43Z" fill="#FE5F55"/>
</svg>
