<svg width="59" height="15" viewBox="0 0 59 15" fill="none" xmlns="http://www.w3.org/2000/svg">
<path d="M6.54545 6.09375C6.4858 5.88636 6.40199 5.70312 6.29403 5.54403C6.18608 5.3821 6.05398 5.24574 5.89773 5.13494C5.74432 5.02131 5.56818 4.93466 5.36932 4.875C5.1733 4.81534 4.95597 4.78551 4.71733 4.78551C4.27131 4.78551 3.87926 4.89631 3.54119 5.1179C3.20597 5.33949 2.9446 5.66193 2.7571 6.08523C2.5696 6.50568 2.47585 7.01989 2.47585 7.62784C2.47585 8.2358 2.56818 8.75284 2.75284 9.17898C2.9375 9.60511 3.19886 9.9304 3.53693 10.1548C3.875 10.3764 4.27415 10.4872 4.73438 10.4872C5.15199 10.4872 5.50852 10.4134 5.80398 10.2656C6.10227 10.1151 6.32955 9.90341 6.4858 9.63068C6.64489 9.35795 6.72443 9.03551 6.72443 8.66335L7.09943 8.71875H4.84943V7.32955H8.50142V8.42898C8.50142 9.19602 8.33949 9.85511 8.01562 10.4062C7.69176 10.9545 7.24574 11.3778 6.67756 11.6761C6.10938 11.9716 5.45881 12.1193 4.72585 12.1193C3.90767 12.1193 3.18892 11.9389 2.5696 11.5781C1.95028 11.2145 1.46733 10.6989 1.12074 10.0312C0.776989 9.3608 0.605114 8.56534 0.605114 7.64489C0.605114 6.9375 0.707386 6.30682 0.911932 5.75284C1.11932 5.19602 1.40909 4.72443 1.78125 4.33807C2.15341 3.9517 2.58665 3.65767 3.08097 3.45597C3.57528 3.25426 4.1108 3.15341 4.6875 3.15341C5.18182 3.15341 5.64205 3.22585 6.06818 3.37074C6.49432 3.51278 6.87216 3.71449 7.2017 3.97585C7.53409 4.23722 7.8054 4.5483 8.01562 4.90909C8.22585 5.26705 8.3608 5.66193 8.42045 6.09375H6.54545ZM12.8363 12.1278C12.163 12.1278 11.5835 11.9915 11.0977 11.7188C10.6147 11.4432 10.2425 11.054 9.98118 10.5511C9.71982 10.0455 9.58913 9.44744 9.58913 8.7571C9.58913 8.08381 9.71982 7.4929 9.98118 6.98438C10.2425 6.47585 10.6104 6.07955 11.0849 5.79545C11.5621 5.51136 12.1218 5.36932 12.7638 5.36932C13.1957 5.36932 13.5977 5.43892 13.9698 5.57812C14.3448 5.71449 14.6715 5.92045 14.9499 6.19602C15.2312 6.47159 15.4499 6.81818 15.6062 7.2358C15.7624 7.65057 15.8406 8.13636 15.8406 8.69318V9.19176H10.3136V8.06676H14.1317C14.1317 7.8054 14.0749 7.57386 13.9613 7.37216C13.8477 7.17045 13.69 7.01278 13.4883 6.89915C13.2894 6.78267 13.0579 6.72443 12.7937 6.72443C12.5181 6.72443 12.2738 6.78835 12.0607 6.91619C11.8505 7.04119 11.6857 7.21023 11.5664 7.4233C11.4471 7.63352 11.386 7.8679 11.3832 8.12642V9.19602C11.3832 9.51989 11.4428 9.79972 11.5621 10.0355C11.6843 10.2713 11.8562 10.4531 12.0778 10.581C12.2994 10.7088 12.5621 10.7727 12.8661 10.7727C13.0678 10.7727 13.2525 10.7443 13.4201 10.6875C13.5877 10.6307 13.7312 10.5455 13.8505 10.4318C13.9698 10.3182 14.0607 10.179 14.1232 10.0142L15.8022 10.125C15.717 10.5284 15.5423 10.8807 15.2781 11.1818C15.0167 11.4801 14.6786 11.7131 14.2638 11.8807C13.8519 12.0455 13.3761 12.1278 12.8363 12.1278Z" fill="#FE5F55"/>
<path d="M30.7585 3.27273H33.0341L35.4375 9.13636H35.5398L37.9432 3.27273H40.2188V12H38.429V6.3196H38.3565L36.098 11.9574H34.8793L32.6207 6.2983H32.5483V12H30.7585V3.27273ZM43.5714 12.1236C43.1538 12.1236 42.7816 12.0511 42.4549 11.9062C42.1282 11.7585 41.8697 11.5412 41.6793 11.2543C41.4918 10.9645 41.3981 10.6037 41.3981 10.1719C41.3981 9.80824 41.4648 9.50284 41.5984 9.25568C41.7319 9.00852 41.9137 8.80966 42.1438 8.65909C42.3739 8.50852 42.6353 8.39489 42.9279 8.31818C43.2234 8.24148 43.533 8.1875 43.8569 8.15625C44.2376 8.11648 44.5444 8.07955 44.7773 8.04545C45.0103 8.00852 45.1793 7.95455 45.2844 7.88352C45.3896 7.8125 45.4421 7.70739 45.4421 7.56818V7.54261C45.4421 7.27273 45.3569 7.06392 45.1864 6.91619C45.0188 6.76847 44.7802 6.6946 44.4705 6.6946C44.1438 6.6946 43.8839 6.76705 43.6907 6.91193C43.4975 7.05398 43.3697 7.23295 43.3072 7.44886L41.6282 7.3125C41.7134 6.91477 41.881 6.57102 42.131 6.28125C42.381 5.98864 42.7035 5.7642 43.0984 5.60795C43.4961 5.44886 43.9563 5.36932 44.479 5.36932C44.8427 5.36932 45.1907 5.41193 45.5231 5.49716C45.8583 5.58239 46.1552 5.71449 46.4137 5.89347C46.6751 6.07244 46.881 6.30256 47.0316 6.58381C47.1822 6.86222 47.2575 7.19602 47.2575 7.58523V12H45.5359V11.0923H45.4847C45.3796 11.2969 45.239 11.4773 45.0629 11.6335C44.8867 11.7869 44.6751 11.9077 44.4279 11.9957C44.1808 12.081 43.8952 12.1236 43.5714 12.1236ZM44.0913 10.8707C44.3583 10.8707 44.5941 10.8182 44.7987 10.7131C45.0032 10.6051 45.1637 10.4602 45.2802 10.2784C45.3967 10.0966 45.4549 9.89062 45.4549 9.66051V8.96591C45.3981 9.00284 45.32 9.03693 45.2205 9.06818C45.1239 9.09659 45.0146 9.12358 44.8924 9.14915C44.7702 9.17187 44.6481 9.19318 44.5259 9.21307C44.4038 9.23011 44.293 9.24574 44.1935 9.25994C43.9805 9.29119 43.7944 9.34091 43.6353 9.40909C43.4762 9.47727 43.3526 9.5696 43.2646 9.68608C43.1765 9.79972 43.1325 9.94176 43.1325 10.1122C43.1325 10.3594 43.2219 10.5483 43.4009 10.679C43.5827 10.8068 43.8129 10.8707 44.0913 10.8707ZM48.6658 14.4545V5.45455H50.4556V6.55398H50.5366C50.6161 6.37784 50.7312 6.19886 50.8817 6.01705C51.0352 5.83239 51.234 5.67898 51.4783 5.55682C51.7255 5.43182 52.0323 5.36932 52.3988 5.36932C52.8761 5.36932 53.3164 5.49432 53.7198 5.74432C54.1232 5.99148 54.4457 6.36506 54.6871 6.86506C54.9286 7.36222 55.0494 7.9858 55.0494 8.7358C55.0494 9.46591 54.9315 10.0824 54.6957 10.5852C54.4627 11.0852 54.1445 11.4645 53.7411 11.723C53.3406 11.9787 52.8917 12.1065 52.3945 12.1065C52.0423 12.1065 51.7425 12.0483 51.4954 11.9318C51.2511 11.8153 51.0508 11.669 50.8945 11.4929C50.7383 11.3139 50.619 11.1335 50.5366 10.9517H50.4812V14.4545H48.6658ZM50.4428 8.72727C50.4428 9.11648 50.4968 9.45597 50.6048 9.74574C50.7127 10.0355 50.869 10.2614 51.0735 10.4233C51.2781 10.5824 51.5266 10.6619 51.8192 10.6619C52.1147 10.6619 52.3647 10.581 52.5692 10.419C52.7738 10.2543 52.9286 10.027 53.0337 9.73722C53.1417 9.4446 53.1957 9.10795 53.1957 8.72727C53.1957 8.34943 53.1431 8.01705 53.038 7.73011C52.9329 7.44318 52.7781 7.21875 52.5735 7.05682C52.369 6.89489 52.1175 6.81392 51.8192 6.81392C51.5238 6.81392 51.2738 6.89205 51.0692 7.0483C50.8675 7.20455 50.7127 7.42614 50.6048 7.71307C50.4968 8 50.4428 8.33807 50.4428 8.72727Z" fill="#0970AC"/>
<path d="M24.2228 12.8482L21.7698 3.16425M27.8382 6.80299L18.1543 9.25594M27.8454 6.77127C28.524 9.44733 26.9048 12.1668 24.2287 12.8454C21.5527 13.524 18.8332 11.9048 18.1546 9.22873C17.476 6.55267 19.0952 3.83317 21.7713 3.15456C24.4473 2.47595 27.1668 4.09521 27.8454 6.77127ZM25.7909 7.34625C26.4357 9.99775 25.7092 12.451 24.1682 12.8257C22.6272 13.2005 20.8553 11.3548 20.2105 8.70331C19.5657 6.05181 20.2922 3.59857 21.8332 3.22383C23.3742 2.84909 25.1461 4.69476 25.7909 7.34625Z" stroke="#0970AC"/>
</svg>
