<svg width="86" height="86" viewBox="0 0 86 86" fill="none" xmlns="http://www.w3.org/2000/svg">
<path d="M43 50.1667C50.9048 50.1667 57.3333 43.7382 57.3333 35.8333C57.3333 27.9285 50.9048 21.5 43 21.5C35.0951 21.5 28.6666 27.9285 28.6666 35.8333C28.6666 43.7382 35.0951 50.1667 43 50.1667ZM43 28.6667C46.9524 28.6667 50.1666 31.8809 50.1666 35.8333C50.1666 39.7857 46.9524 43 43 43C39.0475 43 35.8333 39.7857 35.8333 35.8333C35.8333 31.8809 39.0475 28.6667 43 28.6667Z" fill="#FE5F55"/>
<path d="M40.9217 78.1668C41.5281 78.5999 42.2547 78.8327 43 78.8327C43.7452 78.8327 44.4719 78.5999 45.0783 78.1668C46.1677 77.3964 71.7706 58.91 71.6667 35.8333C71.6667 20.0272 58.8061 7.16663 43 7.16663C27.1939 7.16663 14.3333 20.0272 14.3333 35.8154C14.2294 58.91 39.8323 77.3964 40.9217 78.1668ZM43 14.3333C54.8572 14.3333 64.5 23.976 64.5 35.8512C64.5752 51.754 48.7763 66.0336 43 70.717C37.2272 66.03 21.4247 51.7469 21.5 35.8333C21.5 23.976 31.1427 14.3333 43 14.3333Z" fill="#FE5F55"/>
</svg>
